<svg width="612" height="1463" viewBox="0 0 612 1463" fill="none" xmlns="http://www.w3.org/2000/svg">
    <path d="M-439.331 683.25C-473.35 910.609 -357.943 1116.31 -181.561 1142.71C-5.17868 1169.1 165.386 1006.18 199.405 778.824C233.425 551.466 118.017 345.76 -58.3651 319.368C-234.747 292.976 -405.311 455.892 -439.331 683.25Z" stroke="url(#paint0_linear_35_123)" stroke-width="0.5" stroke-miterlimit="10"/>
    <path d="M-425.024 674.276C-457.505 889.296 -344.263 1084.69 -172.092 1110.7C0.0785007 1136.7 165.981 983.478 198.462 768.458C230.942 553.437 117.7 358.046 -54.4705 332.038C-226.641 306.03 -392.544 459.255 -425.024 674.276Z" stroke="url(#paint1_linear_35_123)" stroke-width="0.5" stroke-miterlimit="10"/>
    <path d="M-410.83 664.829C-441.98 867.452 -331.078 1052.64 -163.122 1078.46C4.83315 1104.28 166.24 960.958 197.391 758.335C228.541 555.711 117.639 370.521 -50.3164 344.7C-218.272 318.879 -379.679 462.206 -410.83 664.829Z" stroke="url(#paint2_linear_35_123)" stroke-width="0.5" stroke-miterlimit="10"/>
    <path d="M-396.547 654.739C-426.734 844.905 -318.514 1020.13 -154.83 1046.11C8.85341 1072.1 166.017 939 196.205 748.833C226.392 558.667 118.172 383.443 -45.5118 357.459C-209.196 331.475 -366.359 464.572 -396.547 654.739Z" stroke="url(#paint3_linear_35_123)" stroke-width="0.5" stroke-miterlimit="10"/>
    <path d="M-381.923 643.388C-411.899 820.993 -307.095 986.761 -147.835 1013.64C11.4241 1040.52 164.83 918.333 194.806 740.727C224.782 563.121 119.977 397.353 -39.2825 370.474C-198.542 343.594 -351.947 465.782 -381.923 643.388Z" stroke="url(#paint4_linear_35_123)" stroke-width="0.5" stroke-miterlimit="10"/>
    <path d="M-366.412 627.202C-398.839 791.724 -300.024 949.753 -145.703 980.17C8.61824 1010.59 160.008 901.872 192.435 737.35C224.862 572.827 126.047 414.798 -28.2739 384.382C-182.595 353.965 -333.985 462.679 -366.412 627.202Z" stroke="url(#paint5_linear_35_123)" stroke-width="0.5" stroke-miterlimit="10"/>
    <path d="M-333.505 560.175C-396.544 702.23 -334.323 867.678 -194.531 929.713C-54.7389 991.748 109.688 926.878 172.727 784.824C235.766 642.769 173.546 477.321 33.7537 415.286C-106.038 353.251 -270.466 418.12 -333.505 560.175Z" stroke="url(#paint6_linear_35_123)" stroke-width="0.5" stroke-miterlimit="10"/>
    <path d="M-343.616 657.385C-346.43 800.055 -227.922 918.094 -78.9218 921.033C70.0789 923.972 193.149 810.698 195.963 668.028C198.777 525.359 80.2697 407.32 -68.7309 404.381C-217.732 401.442 -340.802 514.716 -343.616 657.385Z" stroke="url(#paint7_linear_35_123)" stroke-width="0.5" stroke-miterlimit="10"/>
    <path d="M-328.581 632.591C-338.759 762.487 -229.998 876.955 -85.6588 888.264C58.6809 899.574 183.942 803.44 194.119 673.545C204.296 543.65 95.5364 429.181 -48.8033 417.872C-193.143 406.563 -318.404 502.696 -328.581 632.591Z" stroke="url(#paint8_linear_35_123)" stroke-width="0.5" stroke-miterlimit="10"/>
    <path d="M-314.119 619.588C-325.067 736.942 -220.468 842.663 -80.4889 855.722C59.4898 868.782 181.841 784.234 192.789 666.88C203.738 549.527 99.1381 443.806 -40.8407 430.746C-180.819 417.687 -303.17 502.234 -314.119 619.588Z" stroke="url(#paint9_linear_35_123)" stroke-width="0.5" stroke-miterlimit="10"/>
    <path d="M-299.832 609.215C-310.193 714.138 -208.562 810.062 -72.8307 823.466C62.9002 836.87 181.332 762.679 191.693 657.756C202.055 552.833 100.423 456.91 -35.3074 443.506C-171.038 430.102 -289.47 504.292 -299.832 609.215Z" stroke="url(#paint10_linear_35_123)" stroke-width="0.5" stroke-miterlimit="10"/>
    <path d="M-285.612 599.847C-294.914 692.384 -195.826 778.118 -64.293 791.34C67.2399 804.561 181.409 740.263 190.711 647.726C200.012 555.189 100.924 469.454 -30.6086 456.233C-162.141 443.011 -276.31 507.309 -285.612 599.847Z" stroke="url(#paint11_linear_35_123)" stroke-width="0.5" stroke-miterlimit="10"/>
    <path d="M-271.559 590.854C-279.604 671.025 -182.858 746.378 -55.4712 759.16C71.9154 771.942 181.704 717.313 189.749 637.142C197.793 556.971 101.047 481.618 -26.3395 468.836C-153.726 456.053 -263.515 510.683 -271.559 590.854Z" stroke="url(#paint12_linear_35_123)" stroke-width="0.5" stroke-miterlimit="10"/>
    <path d="M-257.407 582.261C-264.092 650.076 -169.611 714.899 -46.3778 727.047C76.8558 739.196 182.176 694.069 188.861 626.254C195.546 558.44 101.065 493.617 -22.1687 481.468C-145.402 469.32 -250.722 514.447 -257.407 582.261Z" stroke="url(#paint13_linear_35_123)" stroke-width="0.5" stroke-miterlimit="10"/>
    <defs>
    <linearGradient id="paint0_linear_35_123" x1="199.405" y1="778.824" x2="-439.331" y2="683.25" gradientUnits="userSpaceOnUse">
    <stop stop-color="#883DA8"/>
    <stop offset="1" stop-color="#4399F7"/>
    </linearGradient>
    <linearGradient id="paint1_linear_35_123" x1="198.462" y1="768.458" x2="-425.024" y2="674.276" gradientUnits="userSpaceOnUse">
    <stop stop-color="#883DA8"/>
    <stop offset="1" stop-color="#4399F7"/>
    </linearGradient>
    <linearGradient id="paint2_linear_35_123" x1="197.391" y1="758.335" x2="-410.83" y2="664.829" gradientUnits="userSpaceOnUse">
    <stop stop-color="#883DA8"/>
    <stop offset="1" stop-color="#4399F7"/>
    </linearGradient>
    <linearGradient id="paint3_linear_35_123" x1="196.205" y1="748.833" x2="-396.547" y2="654.739" gradientUnits="userSpaceOnUse">
    <stop stop-color="#883DA8"/>
    <stop offset="1" stop-color="#4399F7"/>
    </linearGradient>
    <linearGradient id="paint4_linear_35_123" x1="194.806" y1="740.727" x2="-381.923" y2="643.388" gradientUnits="userSpaceOnUse">
    <stop stop-color="#883DA8"/>
    <stop offset="1" stop-color="#4399F7"/>
    </linearGradient>
    <linearGradient id="paint5_linear_35_123" x1="192.435" y1="737.35" x2="-366.412" y2="627.202" gradientUnits="userSpaceOnUse">
    <stop stop-color="#883DA8"/>
    <stop offset="1" stop-color="#4399F7"/>
    </linearGradient>
    <linearGradient id="paint6_linear_35_123" x1="172.727" y1="784.824" x2="-333.505" y2="560.175" gradientUnits="userSpaceOnUse">
    <stop stop-color="#883DA8"/>
    <stop offset="1" stop-color="#4399F7"/>
    </linearGradient>
    <linearGradient id="paint7_linear_35_123" x1="195.963" y1="668.029" x2="-343.616" y2="657.385" gradientUnits="userSpaceOnUse">
    <stop stop-color="#883DA8"/>
    <stop offset="1" stop-color="#4399F7"/>
    </linearGradient>
    <linearGradient id="paint8_linear_35_123" x1="194.119" y1="673.545" x2="-328.581" y2="632.591" gradientUnits="userSpaceOnUse">
    <stop stop-color="#883DA8"/>
    <stop offset="1" stop-color="#4399F7"/>
    </linearGradient>
    <linearGradient id="paint9_linear_35_123" x1="192.789" y1="666.88" x2="-314.119" y2="619.588" gradientUnits="userSpaceOnUse">
    <stop stop-color="#883DA8"/>
    <stop offset="1" stop-color="#4399F7"/>
    </linearGradient>
    <linearGradient id="paint10_linear_35_123" x1="191.693" y1="657.756" x2="-299.832" y2="609.215" gradientUnits="userSpaceOnUse">
    <stop stop-color="#883DA8"/>
    <stop offset="1" stop-color="#4399F7"/>
    </linearGradient>
    <linearGradient id="paint11_linear_35_123" x1="190.711" y1="647.726" x2="-285.612" y2="599.847" gradientUnits="userSpaceOnUse">
    <stop stop-color="#883DA8"/>
    <stop offset="1" stop-color="#4399F7"/>
    </linearGradient>
    <linearGradient id="paint12_linear_35_123" x1="189.749" y1="637.142" x2="-271.559" y2="590.854" gradientUnits="userSpaceOnUse">
    <stop stop-color="#883DA8"/>
    <stop offset="1" stop-color="#4399F7"/>
    </linearGradient>
    <linearGradient id="paint13_linear_35_123" x1="188.861" y1="626.254" x2="-257.407" y2="582.261" gradientUnits="userSpaceOnUse">
    <stop stop-color="#883DA8"/>
    <stop offset="1" stop-color="#4399F7"/>
    </linearGradient>
    </defs>
    </svg>
    