<svg width="551" height="146" viewBox="0 0 551 146" fill="none" xmlns="http://www.w3.org/2000/svg">
    <path d="M550.5 73C550.5 82.8075 542.991 92.2793 529.084 100.991C515.204 109.687 495.085 117.536 470.18 124.135C420.377 137.332 351.547 145.5 275.5 145.5C199.453 145.5 130.623 137.332 80.8202 124.135C55.9149 117.536 35.7962 109.687 21.9156 100.991C8.00923 92.2793 0.5 82.8075 0.5 73C0.5 63.1925 8.00923 53.7207 21.9156 45.0088C35.7962 36.3131 55.9149 28.4637 80.8202 21.8645C130.623 8.66807 199.453 0.5 275.5 0.5C351.547 0.5 420.377 8.66807 470.18 21.8645C495.085 28.4637 515.204 36.3131 529.084 45.0088C542.991 53.7207 550.5 63.1925 550.5 73Z" stroke="#C739EA" stroke-opacity="0.5" />
    <path opacity="0.5" d="M476.5 78.5C476.5 85.6156 471.061 92.5224 460.899 98.9011C450.763 105.264 436.063 111.012 417.854 115.847C381.442 125.515 331.112 131.5 275.5 131.5C219.888 131.5 169.558 125.515 133.146 115.847C114.937 111.012 100.237 105.264 90.1007 98.9011C79.9392 92.5224 74.5 85.6156 74.5 78.5C74.5 71.3844 79.9392 64.4776 90.1007 58.0989C100.237 51.7362 114.937 45.9878 133.146 41.153C169.558 31.4854 219.888 25.5 275.5 25.5C331.112 25.5 381.442 31.4854 417.854 41.153C436.063 45.9878 450.763 51.7362 460.899 58.0989C471.061 64.4776 476.5 71.3844 476.5 78.5Z" stroke="#C739EA" stroke-opacity="0.5" />
</svg>
    