<svg width="566" height="1434" viewBox="0 0 566 1434" fill="none" xmlns="http://www.w3.org/2000/svg">
    <path d="M1027.19 821.059C1101.52 603.517 1024.97 380.42 856.199 322.756C687.433 265.093 490.365 394.7 416.036 612.242C341.708 829.784 418.264 1052.88 587.031 1110.55C755.797 1168.21 952.865 1038.6 1027.19 821.059Z" stroke="url(#paint0_linear_35_107)" stroke-width="0.5" stroke-miterlimit="10"/>
    <path d="M1011.51 827.317C1082.1 621.635 1005.82 409.072 841.132 352.544C676.439 296.015 485.699 416.928 415.101 622.609C344.504 828.29 420.784 1040.85 585.477 1097.38C750.17 1153.91 940.91 1033 1011.51 827.317Z" stroke="url(#paint1_linear_35_107)" stroke-width="0.5" stroke-miterlimit="10"/>
    <path d="M995.846 834.058C1062.91 640.333 987.094 438.226 826.515 382.639C665.935 327.052 481.396 439.035 414.335 632.76C347.274 826.484 423.086 1028.59 583.666 1084.18C744.246 1139.77 928.785 1027.78 995.846 834.058Z" stroke="url(#paint2_linear_35_107)" stroke-width="0.5" stroke-miterlimit="10"/>
    <path d="M979.982 841.417C1043.86 659.773 968.892 467.952 812.544 412.972C656.195 357.993 477.67 460.675 413.795 642.319C349.92 823.964 424.885 1015.78 581.233 1070.76C737.581 1125.74 916.107 1023.06 979.982 841.417Z" stroke="url(#paint3_linear_35_107)" stroke-width="0.5" stroke-miterlimit="10"/>
    <path d="M963.557 849.955C1024.97 680.629 951.661 498.724 799.826 443.658C647.991 388.593 475.123 481.219 413.714 650.545C352.305 819.871 425.609 1001.78 577.444 1056.84C729.279 1111.91 902.148 1019.28 963.557 849.955Z" stroke="url(#paint4_linear_35_107)" stroke-width="0.5" stroke-miterlimit="10"/>
    <path d="M945.388 863.09C1006.86 707.074 938.054 533.859 791.713 476.201C645.371 418.544 476.908 498.278 415.439 654.293C353.97 810.309 422.773 983.525 569.114 1041.18C715.456 1098.84 883.919 1019.1 945.388 863.09Z" stroke="url(#paint5_linear_35_107)" stroke-width="0.5" stroke-miterlimit="10"/>
    <path d="M900.97 923.11C988.514 794.699 957.043 620.762 830.677 534.613C704.311 448.463 530.902 482.723 443.358 611.135C355.814 739.546 387.285 913.483 513.651 999.632C640.017 1085.78 813.426 1051.52 900.97 923.11Z" stroke="url(#paint6_linear_35_107)" stroke-width="0.5" stroke-miterlimit="10"/>
    <path d="M928.389 829.3C956.799 689.46 861.436 552.043 715.39 522.372C569.344 492.701 427.919 582.011 399.509 721.852C371.099 861.692 466.461 999.109 612.507 1028.78C758.553 1058.45 899.978 969.141 928.389 829.3Z" stroke="url(#paint7_linear_35_107)" stroke-width="0.5" stroke-miterlimit="10"/>
    <path d="M909.142 850.989C942.5 725.038 856.084 592.885 716.128 555.818C576.171 518.751 435.672 590.805 402.314 716.756C368.956 842.707 455.372 974.86 595.329 1011.93C735.285 1048.99 875.784 976.939 909.142 850.989Z" stroke="url(#paint8_linear_35_107)" stroke-width="0.5" stroke-miterlimit="10"/>
    <path d="M892.578 861.181C924.441 747.706 840.546 624.907 705.193 586.901C569.841 548.896 434.287 610.077 402.425 723.552C370.562 837.027 454.458 959.826 589.81 997.831C725.162 1035.84 860.716 974.656 892.578 861.181Z" stroke="url(#paint9_linear_35_107)" stroke-width="0.5" stroke-miterlimit="10"/>
    <path d="M876.66 868.817C905.711 767.465 822.974 654.837 691.863 617.256C560.751 579.675 430.914 631.372 401.863 732.724C372.812 834.076 455.549 946.704 586.66 984.285C717.772 1021.87 847.609 970.169 876.66 868.817Z" stroke="url(#paint10_linear_35_107)" stroke-width="0.5" stroke-miterlimit="10"/>
    <path d="M860.988 875.477C886.77 786.119 804.705 683.971 677.69 647.325C550.675 610.678 426.809 653.41 401.027 742.768C375.245 832.126 457.31 934.274 584.325 970.92C711.34 1007.57 835.206 964.836 860.988 875.477Z" stroke="url(#paint11_linear_35_107)" stroke-width="0.5" stroke-miterlimit="10"/>
    <path d="M845.547 881.798C867.87 804.378 786.243 712.864 663.228 677.395C540.213 641.925 422.394 675.932 400.071 753.352C377.748 830.772 459.376 922.286 582.391 957.755C705.405 993.225 823.225 959.217 845.547 881.798Z" stroke="url(#paint12_linear_35_107)" stroke-width="0.5" stroke-miterlimit="10"/>
    <path d="M830.081 887.707C848.846 822.198 767.554 741.449 648.511 707.35C529.467 673.251 417.752 698.713 398.987 764.222C380.223 829.731 461.514 910.48 580.558 944.579C699.601 978.678 811.317 953.216 830.081 887.707Z" stroke="url(#paint13_linear_35_107)" stroke-width="0.5" stroke-miterlimit="10"/>
    <defs>
    <linearGradient id="paint0_linear_35_107" x1="416.036" y1="612.242" x2="1027.19" y2="821.059" gradientUnits="userSpaceOnUse">
    <stop stop-color="#883DA8"/>
    <stop offset="1" stop-color="#4399F7"/>
    </linearGradient>
    <linearGradient id="paint1_linear_35_107" x1="415.101" y1="622.609" x2="1011.51" y2="827.317" gradientUnits="userSpaceOnUse">
    <stop stop-color="#883DA8"/>
    <stop offset="1" stop-color="#4399F7"/>
    </linearGradient>
    <linearGradient id="paint2_linear_35_107" x1="414.335" y1="632.76" x2="995.846" y2="834.058" gradientUnits="userSpaceOnUse">
    <stop stop-color="#883DA8"/>
    <stop offset="1" stop-color="#4399F7"/>
    </linearGradient>
    <linearGradient id="paint3_linear_35_107" x1="413.795" y1="642.319" x2="979.982" y2="841.417" gradientUnits="userSpaceOnUse">
    <stop stop-color="#883DA8"/>
    <stop offset="1" stop-color="#4399F7"/>
    </linearGradient>
    <linearGradient id="paint4_linear_35_107" x1="413.714" y1="650.545" x2="963.557" y2="849.955" gradientUnits="userSpaceOnUse">
    <stop stop-color="#883DA8"/>
    <stop offset="1" stop-color="#4399F7"/>
    </linearGradient>
    <linearGradient id="paint5_linear_35_107" x1="415.439" y1="654.293" x2="945.388" y2="863.09" gradientUnits="userSpaceOnUse">
    <stop stop-color="#883DA8"/>
    <stop offset="1" stop-color="#4399F7"/>
    </linearGradient>
    <linearGradient id="paint6_linear_35_107" x1="443.358" y1="611.135" x2="900.97" y2="923.11" gradientUnits="userSpaceOnUse">
    <stop stop-color="#883DA8"/>
    <stop offset="1" stop-color="#4399F7"/>
    </linearGradient>
    <linearGradient id="paint7_linear_35_107" x1="399.509" y1="721.852" x2="928.389" y2="829.3" gradientUnits="userSpaceOnUse">
    <stop stop-color="#883DA8"/>
    <stop offset="1" stop-color="#4399F7"/>
    </linearGradient>
    <linearGradient id="paint8_linear_35_107" x1="402.314" y1="716.756" x2="909.142" y2="850.989" gradientUnits="userSpaceOnUse">
    <stop stop-color="#883DA8"/>
    <stop offset="1" stop-color="#4399F7"/>
    </linearGradient>
    <linearGradient id="paint9_linear_35_107" x1="402.425" y1="723.552" x2="892.578" y2="861.181" gradientUnits="userSpaceOnUse">
    <stop stop-color="#883DA8"/>
    <stop offset="1" stop-color="#4399F7"/>
    </linearGradient>
    <linearGradient id="paint10_linear_35_107" x1="401.863" y1="732.724" x2="876.66" y2="868.817" gradientUnits="userSpaceOnUse">
    <stop stop-color="#883DA8"/>
    <stop offset="1" stop-color="#4399F7"/>
    </linearGradient>
    <linearGradient id="paint11_linear_35_107" x1="401.027" y1="742.768" x2="860.988" y2="875.477" gradientUnits="userSpaceOnUse">
    <stop stop-color="#883DA8"/>
    <stop offset="1" stop-color="#4399F7"/>
    </linearGradient>
    <linearGradient id="paint12_linear_35_107" x1="400.071" y1="753.352" x2="845.547" y2="881.798" gradientUnits="userSpaceOnUse">
    <stop stop-color="#883DA8"/>
    <stop offset="1" stop-color="#4399F7"/>
    </linearGradient>
    <linearGradient id="paint13_linear_35_107" x1="398.987" y1="764.222" x2="830.081" y2="887.707" gradientUnits="userSpaceOnUse">
    <stop stop-color="#883DA8"/>
    <stop offset="1" stop-color="#4399F7"/>
    </linearGradient>
    </defs>
    </svg>
    