<svg width="856" height="313" viewBox="0 0 856 313" fill="none" xmlns="http://www.w3.org/2000/svg">
    <path d="M855.5 156.5C855.5 177.909 843.636 198.368 822.039 217.039C800.443 235.708 769.164 252.544 730.47 266.693C653.085 294.989 546.146 312.5 428 312.5C309.854 312.5 202.915 294.989 125.53 266.693C86.8356 252.544 55.5571 235.708 33.9614 217.039C12.3642 198.368 0.5 177.909 0.5 156.5C0.5 135.091 12.3642 114.632 33.9614 95.9614C55.5571 77.2918 86.8356 60.4561 125.53 46.3074C202.915 18.0113 309.854 0.5 428 0.5C546.146 0.5 653.085 18.0113 730.47 46.3074C769.164 60.4561 800.443 77.2918 822.039 95.9614C843.636 114.632 855.5 135.091 855.5 156.5Z" stroke="#C739EA" stroke-opacity="0.5" />
    <path d="M644.5 191.5C644.5 202.278 638.54 212.609 627.62 222.067C616.701 231.524 600.873 240.064 581.27 247.245C542.069 261.607 487.88 270.5 428 270.5C368.12 270.5 313.931 261.607 274.73 247.245C255.127 240.064 239.299 231.524 228.38 222.067C217.46 212.609 211.5 202.278 211.5 191.5C211.5 180.722 217.46 170.391 228.38 160.933C239.299 151.476 255.127 142.936 274.73 135.754C313.931 121.393 368.12 112.5 428 112.5C487.88 112.5 542.069 121.393 581.27 135.754C600.873 142.936 616.701 151.476 627.62 160.933C638.54 170.391 644.5 180.722 644.5 191.5Z" stroke="#C739EA" stroke-opacity="0.5" />
</svg>
    