<svg width="29" height="19" viewBox="0 0 29 19" fill="none" xmlns="http://www.w3.org/2000/svg">
<path d="M26.6013 6.94578C27.4461 6.72431 28.0348 5.95298 28.0348 5.07091V1.93214C28.0348 0.86679 27.167 0 26.1005 0H1.93422C0.867725 0 0 0.86679 0 1.93214V5.0671C0 5.94916 0.588677 6.72049 1.43347 6.94196C2.57259 7.24362 3.36387 8.2746 3.36387 9.45069C3.36387 10.6268 2.56877 11.6616 1.43347 11.9594C0.588677 12.1885 0 12.9599 0 13.8419V16.9769C0 18.0422 0.867725 18.909 1.93422 18.909H26.0967C27.1632 18.909 28.0309 18.0422 28.0309 16.9769V13.8419C28.0309 12.9599 27.4423 12.1885 26.5975 11.9671C25.4622 11.6654 24.6671 10.6344 24.6671 9.45832C24.6671 8.27842 25.4622 7.24744 26.6013 6.94578ZM26.2076 13.441C26.3796 13.4868 26.5019 13.651 26.5019 13.8419V16.9769C26.5019 17.2022 26.3184 17.3816 26.0967 17.3816H1.93422C1.70869 17.3816 1.52903 17.1983 1.52903 16.9769V13.8419C1.52903 13.651 1.65135 13.4868 1.82337 13.441C3.63145 12.9637 4.8929 11.3255 4.8929 9.4545C4.8929 7.58346 3.63145 5.94534 1.82337 5.46803C1.65135 5.42221 1.52903 5.25802 1.52903 5.0671V1.93214C1.52903 1.71067 1.71251 1.52738 1.93422 1.52738H26.0967C26.3223 1.52738 26.5019 1.71067 26.5019 1.93214V5.0671C26.5019 5.25802 26.3796 5.42221 26.2076 5.46803C24.3995 5.94534 23.138 7.58728 23.138 9.4545C23.138 11.3217 24.3995 12.9637 26.2076 13.441Z" fill="#C739EA"/>
<path d="M11.9658 7.57589C11.9658 5.72012 10.991 4.64331 9.6455 4.64331C8.30377 4.64331 7.3252 5.72012 7.3252 7.57589C7.3252 9.43548 8.29995 10.539 9.6455 10.539C10.9872 10.539 11.9658 9.4393 11.9658 7.57589ZM9.6455 9.37056C9.17532 9.37056 8.78542 8.89326 8.78542 7.57589C8.78542 6.25852 9.1715 5.81176 9.6455 5.81176C10.1157 5.81176 10.5056 6.25852 10.5056 7.57589C10.5018 8.89708 10.1157 9.37056 9.6455 9.37056Z" fill="#C739EA"/>
<path d="M14.981 4.64331L9.96582 14.2658H11.1738L16.189 4.64331H14.981Z" fill="#C739EA"/>
<path d="M16.498 8.37012C15.1563 8.37012 14.1777 9.44692 14.1777 11.3027C14.1777 13.1623 15.1525 14.2658 16.498 14.2658C17.8436 14.2658 18.8183 13.1661 18.8183 11.3027C18.8183 9.44692 17.8436 8.37012 16.498 8.37012ZM16.498 13.0974C16.0279 13.0974 15.638 12.6201 15.638 11.3027C15.638 9.98533 16.024 9.53857 16.498 9.53857C16.972 9.53857 17.3581 9.98533 17.3581 11.3027C17.3581 12.6239 16.9682 13.0974 16.498 13.0974Z" fill="#C739EA"/>
<path d="M21.4605 2.04663H20.5049V3.77639H21.4605V2.04663Z" fill="#C739EA"/>
<path d="M21.4605 4.66626H20.5049V6.39602H21.4605V4.66626Z" fill="#C739EA"/>
<path d="M21.4605 7.28174H20.5049V9.0115H21.4605V7.28174Z" fill="#C739EA"/>
<path d="M21.4605 9.90137H20.5049V11.6311H21.4605V9.90137Z" fill="#C739EA"/>
<path d="M21.4605 12.5168H20.5049V14.2466H21.4605V12.5168Z" fill="#C739EA"/>
<path d="M21.4605 15.1326H20.5049V16.8623H21.4605V15.1326Z" fill="#C739EA"/>
</svg>
