<svg width="15" height="14" viewBox="0 0 15 14" fill="none" xmlns="http://www.w3.org/2000/svg">
<path d="M0 6.5C0.704994 5.14567 1.77861 4.00859 3.10219 3.21445C4.42576 2.4203 5.94777 2 7.5 2C9.05223 2 10.5742 2.4203 11.8978 3.21445C13.2214 4.00859 14.295 5.14567 15 6.5C14.295 7.85433 13.2214 8.99141 11.8978 9.78555C10.5742 10.5797 9.05223 11 7.5 11C5.94777 11 4.42576 10.5797 3.10219 9.78555C1.77861 8.99141 0.704994 7.85433 0 6.5V6.5ZM7.5 9.498C8.31189 9.498 9.09052 9.18214 9.66461 8.61991C10.2387 8.05767 10.5612 7.29512 10.5612 6.5C10.5612 5.70488 10.2387 4.94233 9.66461 4.38009C9.09052 3.81786 8.31189 3.502 7.5 3.502C6.68811 3.502 5.90948 3.81786 5.33539 4.38009C4.7613 4.94233 4.43878 5.70488 4.43878 6.5C4.43878 7.29512 4.7613 8.05767 5.33539 8.61991C5.90948 9.18214 6.68811 9.498 7.5 9.498V9.498ZM7.5 7.999C7.09406 7.999 6.70474 7.84107 6.41769 7.55995C6.13065 7.27884 5.96939 6.89756 5.96939 6.5C5.96939 6.10244 6.13065 5.72116 6.41769 5.44005C6.70474 5.15893 7.09406 5.001 7.5 5.001C7.90594 5.001 8.29526 5.15893 8.58231 5.44005C8.86935 5.72116 9.03061 6.10244 9.03061 6.5C9.03061 6.89756 8.86935 7.27884 8.58231 7.55995C8.29526 7.84107 7.90594 7.999 7.5 7.999Z" fill="#656565"/>
<path fill-rule="evenodd" clip-rule="evenodd" d="M13.5302 0.530217C13.8231 0.82311 13.8231 1.29798 13.5302 1.59088L2.59088 12.5302C2.29798 12.8231 1.82311 12.8231 1.53022 12.5302C1.23732 12.2373 1.23732 11.7625 1.53022 11.4696L12.4696 0.530217C12.7624 0.237324 13.2373 0.237324 13.5302 0.530217Z" fill="#656565"/>
</svg>
