<svg width="21" height="21" viewBox="0 0 21 21" fill="none" xmlns="http://www.w3.org/2000/svg">
<path d="M10.4999 15.7497C13.3993 15.7497 15.7497 13.3993 15.7497 10.4999C15.7497 7.60044 13.3993 5.25 10.4999 5.25C7.60044 5.25 5.25 7.60044 5.25 10.4999C5.25 13.3993 7.60044 15.7497 10.4999 15.7497Z" fill="#656565"/>
<path d="M19.9496 11.5501H18.8996C18.6211 11.5501 18.354 11.4395 18.1571 11.2426C17.9602 11.0457 17.8496 10.7786 17.8496 10.5002C17.8496 10.2217 17.9602 9.95463 18.1571 9.75773C18.354 9.56082 18.6211 9.4502 18.8996 9.4502H19.9496C20.228 9.4502 20.4951 9.56082 20.692 9.75773C20.8889 9.95463 20.9995 10.2217 20.9995 10.5002C20.9995 10.7786 20.8889 11.0457 20.692 11.2426C20.4951 11.4395 20.228 11.5501 19.9496 11.5501Z" fill="#656565"/>
<path d="M2.09994 11.5501H1.04997C0.771502 11.5501 0.504437 11.4395 0.307529 11.2426C0.110622 11.0457 0 10.7786 0 10.5002C0 10.2217 0.110622 9.95463 0.307529 9.75773C0.504437 9.56082 0.771502 9.4502 1.04997 9.4502H2.09994C2.37841 9.4502 2.64548 9.56082 2.84238 9.75773C3.03929 9.95463 3.14991 10.2217 3.14991 10.5002C3.14991 10.7786 3.03929 11.0457 2.84238 11.2426C2.64548 11.4395 2.37841 11.5501 2.09994 11.5501Z" fill="#656565"/>
<path d="M16.4417 5.6074C16.1808 5.59559 15.9338 5.48704 15.7487 5.30291C15.5531 5.10619 15.4434 4.84007 15.4434 4.56268C15.4434 4.28529 15.5531 4.01918 15.7487 3.82245L16.4942 3.07697C16.5883 2.96706 16.7041 2.87779 16.8344 2.81477C16.9646 2.75174 17.1065 2.71633 17.2511 2.71074C17.3957 2.70516 17.5399 2.72952 17.6747 2.78231C17.8094 2.8351 17.9318 2.91517 18.0341 3.01749C18.1364 3.11982 18.2165 3.24219 18.2693 3.37692C18.3221 3.51166 18.3464 3.65586 18.3409 3.80046C18.3353 3.94506 18.2999 4.08695 18.2368 4.21721C18.1738 4.34747 18.0845 4.4633 17.9746 4.55743L17.2291 5.30291C17.1261 5.4054 17.0029 5.48538 16.8674 5.5378C16.7318 5.59021 16.5869 5.61391 16.4417 5.6074Z" fill="#656565"/>
<path d="M3.82326 18.2275C3.68508 18.2283 3.5481 18.2018 3.42017 18.1495C3.29225 18.0973 3.17589 18.0203 3.07778 17.923C2.88223 17.7263 2.77246 17.4601 2.77246 17.1828C2.77246 16.9054 2.88223 16.6392 3.07778 16.4425L3.82326 15.7495C4.02413 15.5775 4.2825 15.4876 4.54675 15.4979C4.811 15.5081 5.06167 15.6176 5.24867 15.8046C5.43566 15.9916 5.54521 16.2423 5.55541 16.5065C5.56562 16.7708 5.47574 17.0291 5.30372 17.23L4.55824 17.9755C4.35449 18.1504 4.09147 18.2406 3.82326 18.2275Z" fill="#656565"/>
<path d="M10.4992 3.14991C10.2207 3.14991 9.95366 3.03929 9.75675 2.84238C9.55984 2.64548 9.44922 2.37841 9.44922 2.09994V1.04997C9.44922 0.771502 9.55984 0.504437 9.75675 0.307529C9.95366 0.110622 10.2207 0 10.4992 0C10.7777 0 11.0447 0.110622 11.2416 0.307529C11.4385 0.504437 11.5492 0.771502 11.5492 1.04997V2.09994C11.5492 2.37841 11.4385 2.64548 11.2416 2.84238C11.0447 3.03929 10.7777 3.14991 10.4992 3.14991Z" fill="#656565"/>
<path d="M10.4992 20.9995C10.2207 20.9995 9.95366 20.8889 9.75675 20.692C9.55984 20.4951 9.44922 20.228 9.44922 19.9496V18.8996C9.44922 18.6211 9.55984 18.354 9.75675 18.1571C9.95366 17.9602 10.2207 17.8496 10.4992 17.8496C10.7777 17.8496 11.0447 17.9602 11.2416 18.1571C11.4385 18.354 11.5492 18.6211 11.5492 18.8996V19.9496C11.5492 20.228 11.4385 20.4951 11.2416 20.692C11.0447 20.8889 10.7777 20.9995 10.4992 20.9995Z" fill="#656565"/>
<path d="M4.55715 5.60615C4.2817 5.60499 4.01774 5.49563 3.82217 5.30166L3.07669 4.55618C2.90468 4.35531 2.81479 4.09694 2.825 3.83269C2.83521 3.56844 2.94475 3.31777 3.13175 3.13077C3.31874 2.94378 3.56941 2.83423 3.83367 2.82403C4.09792 2.81382 4.35629 2.9037 4.55715 3.07572L5.30263 3.8212C5.49819 4.01792 5.60796 4.28404 5.60796 4.56142C5.60796 4.83881 5.49819 5.10493 5.30263 5.30166C5.20452 5.39897 5.08817 5.47596 4.96024 5.52821C4.83232 5.58046 4.69533 5.60695 4.55715 5.60615Z" fill="#656565"/>
<path d="M17.1775 18.2275C16.9021 18.2264 16.6381 18.117 16.4426 17.923L15.7496 17.1775C15.6386 16.9781 15.5957 16.7479 15.6273 16.5218C15.6589 16.2957 15.7633 16.0861 15.9247 15.9247C16.0861 15.7633 16.2957 15.6589 16.5218 15.6273C16.7479 15.5957 16.9781 15.6386 17.1775 15.7496L17.923 16.4951C18.1186 16.6918 18.2283 16.9579 18.2283 17.2353C18.2283 17.5127 18.1186 17.7788 17.923 17.9755C17.7166 18.153 17.4493 18.2433 17.1775 18.2275Z" fill="#656565"/>
</svg>
