<svg width="353" height="40" viewBox="0 0 353 40" fill="none" xmlns="http://www.w3.org/2000/svg">
    <path d="M19.5755 4.8597C21.5664 4.85318 23.5388 5.24185 25.3784 6.00319C27.218 6.76453 28.8882 7.8834 30.2922 9.29495L33.7301 5.8571C29.9419 2.29021 24.9133 0.33903 19.7107 0.41729C14.5081 0.49555 9.54051 2.59709 5.86129 6.27632C2.18207 9.95554 0.0805267 14.9231 0.00226641 20.1257C-0.0759939 25.3283 1.87518 30.3569 5.44208 34.1451C9.19448 37.8941 14.2818 40 19.5861 40C24.8904 40 29.9777 37.8941 33.7301 34.1451L30.2922 30.7073C28.8863 32.1132 27.2172 33.2285 25.3802 33.9894C23.5432 34.7503 21.5744 35.1419 19.5861 35.1419C17.5978 35.1419 15.6289 34.7503 13.792 33.9894C11.955 33.2285 10.2859 32.1132 8.87993 30.7073C7.47398 29.3013 6.35871 27.6322 5.59782 25.7952C4.83692 23.9583 4.4453 21.9894 4.4453 20.0011C4.4453 18.0128 4.83692 16.0439 5.59782 14.207C6.35871 12.37 7.47398 10.7009 8.87993 9.29495C10.2807 7.88499 11.9474 6.76697 13.7833 6.00564C15.6192 5.24431 17.588 4.85481 19.5755 4.8597Z" fill="white"/>
    <path d="M68.3632 13.518C68.3576 10.0752 66.9875 6.7751 64.5531 4.3407C62.1187 1.90629 58.8186 0.536175 55.3758 0.530563H39.1627V39.4717H44.0224V26.4842H54.5057L62.6123 39.4717H68.3632L59.8747 25.7203C61.6813 25.0824 63.3207 24.0451 64.6707 22.6856C65.8585 21.4752 66.796 20.0424 67.4296 18.4694C68.0632 16.8963 68.3804 15.2138 68.3632 13.518ZM61.1268 19.2478C60.372 20.0032 59.4754 20.6021 58.4884 21.0099C57.5015 21.4178 56.4437 21.6267 55.3758 21.6245H44.0224V5.41146H55.3758C56.9757 5.41827 58.5381 5.89712 59.867 6.78802C61.196 7.67891 62.2324 8.94222 62.8465 10.4196C63.4606 11.897 63.625 13.5228 63.319 15.0932C63.0131 16.6637 62.2505 18.1089 61.1268 19.2478Z" fill="white"/>
    <path d="M88.0991 17.4439L76.2151 0.551773H70.252L85.6586 22.4309V39.4717H90.5183V22.4309L105.946 0.551773H99.983L88.0991 17.4439Z" fill="white"/>
    <path d="M127.571 0.530568H111.358V39.4717H116.302V26.4842H127.656C130.212 26.4672 132.707 25.6945 134.826 24.2633C136.945 22.8321 138.594 20.8063 139.565 18.4407C140.535 16.0751 140.785 13.4753 140.282 10.9682C139.779 8.46106 138.546 6.15863 136.738 4.3504C135.54 3.13681 134.113 2.17398 132.539 1.51814C130.965 0.862297 129.276 0.526573 127.571 0.530568ZM133.279 19.2478C132.528 20.0026 131.635 20.6012 130.652 21.0091C129.669 21.4171 128.614 21.6262 127.549 21.6245H116.302V5.41147H127.656C129.249 5.43314 130.801 5.92406 132.117 6.82286C133.433 7.72166 134.455 8.98847 135.055 10.4649C135.655 11.9413 135.807 13.5619 135.491 15.124C135.175 16.6861 134.406 18.1205 133.279 19.2478Z" fill="white"/>
    <path d="M144.611 5.41145H156.771V39.4717H161.631V5.41145H173.791V0.551773H144.611V5.41145Z" fill="white"/>
    <path d="M195.158 16.5884L191.721 20.0235L195.156 23.461L198.593 20.0259L195.158 16.5884Z" fill="white"/>
    <path d="M195.161 3.03081e-05C190.537 0.0040088 186.057 1.61089 182.485 4.54698C178.912 7.48306 176.468 11.5668 175.569 16.1025C174.67 20.6382 175.371 25.3455 177.552 29.4225C179.734 33.4995 183.262 36.694 187.534 38.462C191.807 40.23 196.561 40.4621 200.985 39.1188C205.41 37.7755 209.232 34.9398 211.8 31.0948C214.369 27.2498 215.525 22.6332 215.072 18.0314C214.619 13.4296 212.584 9.12727 209.315 5.85711C207.458 3.99629 205.252 2.52088 202.823 1.51571C200.393 0.510548 197.789 -0.00455216 195.161 3.03081e-05ZM205.771 30.7073C203.654 32.8147 200.961 34.2482 198.03 34.8273C195.099 35.4063 192.063 35.105 189.303 33.9612C186.544 32.8175 184.185 30.8825 182.523 28.4C180.861 25.9176 179.972 22.9989 179.966 20.0117C179.951 17.5194 180.552 15.062 181.715 12.8578C182.878 10.6536 184.568 8.77084 186.634 7.37692C188.7 5.983 191.079 5.12104 193.558 4.86764C196.038 4.61424 198.541 4.97724 200.847 5.92439C203.152 6.87154 205.188 8.37351 206.773 10.2968C208.358 12.2201 209.443 14.5052 209.933 16.9491C210.422 19.3929 210.3 21.9198 209.578 24.3052C208.856 26.6905 207.555 28.8606 205.792 30.6224L205.771 30.7073Z" fill="white"/>
    <path d="M249.593 0.551773L235.439 32.893L221.305 0.551773H215.979L233.019 39.4717H237.879L254.899 0.551773H249.593Z" fill="white"/>
    <path d="M269.244 0.530563L252.119 39.4717H257.445L281.404 29.5401L285.648 39.4717H290.954L273.976 0.530563H269.244ZM260.331 33.0416L271.663 7.10917L279.536 25.0836L260.331 33.0416Z" fill="white"/>
    <path d="M291.145 5.41145H303.304V39.4717H308.164V5.41145H320.345V0.551773H291.145V5.41145Z" fill="white"/>
    <path d="M352.771 5.41145V0.551773H325.756V39.4717H352.771V34.5908H330.616V20.0117H347.912V15.1308H330.616V5.41145H352.771Z" fill="white"/>
    </svg>
    