<svg width="17" height="18" viewBox="0 0 17 18" fill="none" xmlns="http://www.w3.org/2000/svg">
    <path d="M16.449 11.8235C15.8652 13.2098 14.9264 14.4177 13.7273 15.3257C12.5281 16.2336 11.1108 16.8096 9.61822 16.9955C8.12561 17.1815 6.61036 16.9709 5.22507 16.3849C3.83977 15.7988 2.63335 14.8582 1.72729 13.6575C0.821238 12.4569 0.247542 11.0387 0.0639829 9.54583C-0.119576 8.05293 0.093484 6.53802 0.681705 5.15367C1.26993 3.76931 2.21254 2.5644 3.41461 1.66026C4.61669 0.756126 6.03578 0.184699 7.52897 0.00352823C7.63256 -0.00884328 7.73743 0.011501 7.82889 0.0617112C7.92034 0.111921 7.9938 0.189482 8.03897 0.283528C8.08621 0.375838 8.10295 0.480755 8.08678 0.583182C8.0706 0.685609 8.02235 0.780265 7.94897 0.853528C7.33601 1.46163 6.85116 2.18644 6.52311 2.98512C6.19505 3.7838 6.03042 4.64014 6.03897 5.50353C6.04777 6.63838 6.35039 7.7516 6.91735 8.73472C7.4843 9.71785 8.29625 10.5373 9.27408 11.1134C10.2519 11.6894 11.3623 12.0023 12.497 12.0216C13.6317 12.0409 14.7521 11.766 15.749 11.2235C15.8415 11.1758 15.9463 11.1569 16.0497 11.1694C16.1531 11.1819 16.2504 11.2251 16.329 11.2935C16.3959 11.3622 16.4425 11.4481 16.4637 11.5416C16.4849 11.6351 16.4798 11.7327 16.449 11.8235Z" fill="#C739EA" />
</svg>
    