<svg width="14" height="14" viewBox="0 0 14 14" fill="none" xmlns="http://www.w3.org/2000/svg">
    <path d="M9.36076 11.4819C9.40876 11.5299 9.38926 11.6139 9.32426 11.6349C5.47433 12.8678 1.3084 10.8834 0.0274268 7.16395C-0.00857259 7.05895 -0.00857259 6.94195 0.0274268 6.83646C0.39892 5.75798 1.02241 4.81299 1.82139 4.05001C1.85189 4.02101 1.90039 4.02201 1.92989 4.05151L4.08085 6.20247C4.09585 6.21747 4.10135 6.23847 4.09635 6.25897C3.53836 8.43143 5.57033 10.4564 7.73429 9.9059C7.75879 9.8994 7.78179 9.9039 7.79979 9.9219C7.97878 10.1004 9.02227 11.1434 9.36076 11.4819Z" fill="white" />
    <path d="M11.3399 10.6329C12.5429 9.78695 13.4804 8.59347 13.9729 7.1625C14.0089 7.0575 14.0089 6.9425 13.9729 6.8375C12.9769 3.94405 10.1749 2.00009 7 2.00009C5.76052 2.00009 4.57954 2.29858 3.53956 2.83257L0.85361 0.146622C0.658113 -0.0488741 0.342119 -0.0488741 0.146622 0.146622C-0.0488741 0.342119 -0.0488741 0.658113 0.146622 0.85361L13.1464 13.8534C13.3419 14.0489 13.6579 14.0489 13.8534 13.8534C14.0489 13.6579 14.0489 13.3419 13.8534 13.1464L11.3399 10.6329ZM7 4.00005C8.65447 4.00005 9.99995 5.34553 9.99995 7C9.99995 7.64699 9.79195 8.24498 9.44246 8.73547L5.26453 4.55754C5.75502 4.20805 6.35301 4.00005 7 4.00005Z" fill="white" />
</svg>
    