<svg width="30" height="30" viewBox="0 0 30 30" fill="none" xmlns="http://www.w3.org/2000/svg">
<g filter="url(#filter0_d_557_176)">
<circle cx="16" cy="14" r="13" fill="url(#paint0_linear_557_176)"/>
</g>
<path d="M15.8629 8.06687C15.7249 8.00972 15.5736 7.98865 15.4243 8.00579C15.275 8.02294 15.1331 8.0777 15.0132 8.16448L10.9514 11.2391H7.84975C7.62438 11.2391 7.40825 11.3248 7.24889 11.4774C7.08953 11.6299 7 11.8368 7 12.0525V16.9329C7 17.1486 7.08953 17.3555 7.24889 17.5081C7.40825 17.6606 7.62438 17.7463 7.84975 17.7463H10.9514L14.9707 20.821C15.1202 20.9358 15.3059 20.9988 15.4975 20.9999C15.6245 21.0019 15.75 20.974 15.8629 20.9186C16.0075 20.8526 16.1297 20.7489 16.2154 20.6194C16.3011 20.4899 16.3468 20.3398 16.3473 20.1865V8.79893C16.3468 8.64561 16.3011 8.49554 16.2154 8.36602C16.1297 8.2365 16.0075 8.13279 15.8629 8.06687V8.06687ZM14.6478 18.4946L11.7756 16.2985C11.6261 16.1836 11.4404 16.1206 11.2488 16.1195H8.69951V12.8659H11.2488C11.4404 12.8649 11.6261 12.8018 11.7756 12.687L14.6478 10.4908V18.4946ZM22.2191 14.4927L23.7486 13.0367C23.8279 12.9609 23.8907 12.8709 23.9336 12.7718C23.9765 12.6727 23.9985 12.5665 23.9985 12.4592C23.9985 12.352 23.9765 12.2458 23.9336 12.1467C23.8907 12.0476 23.8279 11.9575 23.7486 11.8817C23.6694 11.8059 23.5754 11.7457 23.4718 11.7047C23.3683 11.6636 23.2574 11.6425 23.1453 11.6425C23.0333 11.6425 22.9223 11.6636 22.8188 11.7047C22.7153 11.7457 22.6212 11.8059 22.542 11.8817L21.0209 13.3458L19.4999 11.8817C19.3399 11.7285 19.1228 11.6425 18.8966 11.6425C18.6703 11.6425 18.4532 11.7285 18.2932 11.8817C18.1332 12.0349 18.0433 12.2426 18.0433 12.4592C18.0433 12.6758 18.1332 12.8836 18.2932 13.0367L19.8228 14.4927L18.2932 15.9487C18.2136 16.0243 18.1504 16.1143 18.1072 16.2134C18.0641 16.3125 18.0419 16.4188 18.0419 16.5262C18.0419 16.6336 18.0641 16.7399 18.1072 16.839C18.1504 16.9381 18.2136 17.0281 18.2932 17.1037C18.3722 17.18 18.4662 17.2405 18.5698 17.2818C18.6733 17.3231 18.7844 17.3443 18.8966 17.3443C19.0087 17.3443 19.1198 17.3231 19.2233 17.2818C19.3269 17.2405 19.4209 17.18 19.4999 17.1037L21.0209 15.6396L22.542 17.1037C22.621 17.18 22.715 17.2405 22.8185 17.2818C22.9221 17.3231 23.0331 17.3443 23.1453 17.3443C23.2575 17.3443 23.3686 17.3231 23.4721 17.2818C23.5757 17.2405 23.6696 17.18 23.7486 17.1037C23.8283 17.0281 23.8915 16.9381 23.9346 16.839C23.9778 16.7399 24 16.6336 24 16.5262C24 16.4188 23.9778 16.3125 23.9346 16.2134C23.8915 16.1143 23.8283 16.0243 23.7486 15.9487L22.2191 14.4927Z" fill="white"/>
<defs>
<filter id="filter0_d_557_176" x="0" y="0" width="30" height="30" filterUnits="userSpaceOnUse" color-interpolation-filters="sRGB">
<feFlood flood-opacity="0" result="BackgroundImageFix"/>
<feColorMatrix in="SourceAlpha" type="matrix" values="0 0 0 0 0 0 0 0 0 0 0 0 0 0 0 0 0 0 127 0" result="hardAlpha"/>
<feOffset dx="-1" dy="1"/>
<feGaussianBlur stdDeviation="1"/>
<feComposite in2="hardAlpha" operator="out"/>
<feColorMatrix type="matrix" values="0 0 0 0 0.780392 0 0 0 0 0.223529 0 0 0 0 0.917647 0 0 0 0.4 0"/>
<feBlend mode="normal" in2="BackgroundImageFix" result="effect1_dropShadow_557_176"/>
<feBlend mode="normal" in="SourceGraphic" in2="effect1_dropShadow_557_176" result="shape"/>
</filter>
<linearGradient id="paint0_linear_557_176" x1="-4.29841e-08" y1="27" x2="25" y2="27" gradientUnits="userSpaceOnUse">
<stop offset="0.260981" stop-color="#C739EA"/>
<stop offset="1" stop-color="#883DA8"/>
<stop offset="1" stop-color="#953CB6"/>
</linearGradient>
</defs>
</svg>
