<svg width="24" height="24" viewBox="0 0 24 24" fill="none" xmlns="http://www.w3.org/2000/svg">
    <path d="M12 18C15.3137 18 18 15.3137 18 12C18 8.68629 15.3137 6 12 6C8.68629 6 6 8.68629 6 12C6 15.3137 8.68629 18 12 18Z" fill="#C739EA" />
    <path d="M22.8004 13.2H21.6004C21.2821 13.2 20.9769 13.0736 20.7519 12.8486C20.5268 12.6235 20.4004 12.3183 20.4004 12C20.4004 11.6818 20.5268 11.3766 20.7519 11.1515C20.9769 10.9265 21.2821 10.8 21.6004 10.8H22.8004C23.1187 10.8 23.4239 10.9265 23.6489 11.1515C23.874 11.3766 24.0004 11.6818 24.0004 12C24.0004 12.3183 23.874 12.6235 23.6489 12.8486C23.4239 13.0736 23.1187 13.2 22.8004 13.2Z" fill="#C739EA" />
    <path d="M2.4 13.2H1.2C0.88174 13.2 0.576515 13.0736 0.351472 12.8486C0.126428 12.6235 0 12.3183 0 12C0 11.6818 0.126428 11.3766 0.351472 11.1515C0.576515 10.9265 0.88174 10.8 1.2 10.8H2.4C2.71826 10.8 3.02348 10.9265 3.24853 11.1515C3.47357 11.3766 3.6 11.6818 3.6 12C3.6 12.3183 3.47357 12.6235 3.24853 12.8486C3.02348 13.0736 2.71826 13.2 2.4 13.2Z" fill="#C739EA" />
    <path d="M18.7913 6.40813C18.4933 6.39464 18.2109 6.27057 17.9993 6.06013C17.7758 5.8353 17.6504 5.53115 17.6504 5.21413C17.6504 4.89711 17.7758 4.59297 17.9993 4.36813L18.8513 3.51613C18.9589 3.39051 19.0913 3.28849 19.2402 3.21646C19.3891 3.14443 19.5512 3.10396 19.7165 3.09757C19.8817 3.09119 20.0465 3.11904 20.2005 3.17937C20.3545 3.2397 20.4944 3.33121 20.6113 3.44815C20.7283 3.5651 20.8198 3.70495 20.8801 3.85894C20.9404 4.01293 20.9683 4.17773 20.9619 4.343C20.9555 4.50826 20.915 4.67042 20.843 4.8193C20.771 4.96817 20.669 5.10056 20.5433 5.20813L19.6913 6.06013C19.5736 6.17727 19.4328 6.26868 19.2779 6.32858C19.1229 6.38848 18.9573 6.41557 18.7913 6.40813Z" fill="#C739EA" />
    <path d="M4.36892 20.8322C4.21099 20.8331 4.05444 20.8029 3.90823 20.7431C3.76203 20.6834 3.62905 20.5954 3.51692 20.4842C3.29342 20.2594 3.16797 19.9552 3.16797 19.6382C3.16797 19.3212 3.29342 19.0171 3.51692 18.7922L4.36892 18.0002C4.59848 17.8036 4.89377 17.7009 5.19578 17.7126C5.4978 17.7242 5.78428 17.8494 5.998 18.0631C6.21171 18.2769 6.33691 18.5633 6.34857 18.8654C6.36024 19.1674 6.25751 19.4627 6.06092 19.6922L5.20892 20.5442C4.97605 20.7441 4.67545 20.8472 4.36892 20.8322Z" fill="#C739EA" />
    <path d="M11.9998 3.6C11.6815 3.6 11.3763 3.47357 11.1513 3.24853C10.9262 3.02348 10.7998 2.71826 10.7998 2.4V1.2C10.7998 0.88174 10.9262 0.576515 11.1513 0.351472C11.3763 0.126428 11.6815 0 11.9998 0C12.3181 0 12.6233 0.126428 12.8483 0.351472C13.0734 0.576515 13.1998 0.88174 13.1998 1.2V2.4C13.1998 2.71826 13.0734 3.02348 12.8483 3.24853C12.6233 3.47357 12.3181 3.6 11.9998 3.6Z" fill="#C739EA" />
    <path d="M11.9998 24C11.6815 24 11.3763 23.8736 11.1513 23.6486C10.9262 23.4235 10.7998 23.1183 10.7998 22.8V21.6C10.7998 21.2818 10.9262 20.9765 11.1513 20.7515C11.3763 20.5265 11.6815 20.4 11.9998 20.4C12.3181 20.4 12.6233 20.5265 12.8483 20.7515C13.0734 20.9765 13.1998 21.2818 13.1998 21.6V22.8C13.1998 23.1183 13.0734 23.4235 12.8483 23.6486C12.6233 23.8736 12.3181 24 11.9998 24Z" fill="#C739EA" />
    <path d="M5.20809 6.40784C4.89328 6.40652 4.5916 6.28154 4.36809 6.05984L3.51609 5.20784C3.3195 4.97828 3.21677 4.68299 3.22843 4.38098C3.2401 4.07897 3.3653 3.79248 3.57901 3.57877C3.79273 3.36505 4.07921 3.23986 4.38122 3.22819C4.68324 3.21652 4.97853 3.31925 5.20809 3.51584L6.06009 4.36784C6.28359 4.59268 6.40904 4.89682 6.40904 5.21384C6.40904 5.53087 6.28359 5.83501 6.06009 6.05984C5.94796 6.17106 5.81498 6.25905 5.66878 6.31877C5.52257 6.37849 5.36602 6.40876 5.20809 6.40784Z" fill="#C739EA" />
    <path d="M19.6319 20.8322C19.3171 20.8309 19.0155 20.7059 18.7919 20.4842L17.9999 19.6322C17.8731 19.4042 17.8241 19.1411 17.8602 18.8827C17.8963 18.6244 18.0156 18.3848 18.2001 18.2003C18.3846 18.0159 18.6241 17.8966 18.8825 17.8604C19.1409 17.8243 19.404 17.8734 19.6319 18.0002L20.4839 18.8522C20.7074 19.077 20.8329 19.3812 20.8329 19.6982C20.8329 20.0152 20.7074 20.3194 20.4839 20.5442C20.248 20.747 19.9425 20.8503 19.6319 20.8322Z" fill="#C739EA" />
</svg>
    