<svg width="33" height="33" viewBox="0 0 33 33" fill="none" xmlns="http://www.w3.org/2000/svg">
<rect width="33" height="33" rx="16.5" fill="url(#paint0_linear_545_5)"/>
<path d="M24.0714 16.5713C23.9307 16.5712 23.7913 16.5989 23.6613 16.6527C23.5313 16.7065 23.4131 16.7854 23.3136 16.8849C23.2141 16.9844 23.1352 17.1026 23.0814 17.2326C23.0276 17.3626 22.9999 17.502 23 17.6427V20.857H10.1429V17.6427C10.1429 17.3586 10.03 17.086 9.82904 16.8851C9.62811 16.6842 9.35559 16.5713 9.07143 16.5713C8.78727 16.5713 8.51475 16.6842 8.31381 16.8851C8.11288 17.086 8 17.3586 8 17.6427V21.9284C7.99992 22.0692 8.02758 22.2085 8.0814 22.3385C8.13521 22.4686 8.21413 22.5867 8.31364 22.6862C8.41314 22.7857 8.53129 22.8646 8.66132 22.9185C8.79134 22.9723 8.9307 22.9999 9.07143 22.9999H24.0714C24.2122 22.9999 24.3515 22.9723 24.4815 22.9185C24.6116 22.8646 24.7297 22.7857 24.8292 22.6862C24.9287 22.5867 25.0076 22.4686 25.0615 22.3385C25.1153 22.2085 25.1429 22.0692 25.1429 21.9284V17.6427C25.1429 17.502 25.1153 17.3626 25.0615 17.2326C25.0076 17.1026 24.9287 16.9844 24.8292 16.8849C24.7297 16.7854 24.6116 16.7065 24.4815 16.6527C24.3515 16.5989 24.2122 16.5712 24.0714 16.5713V16.5713Z" fill="white"/>
<path d="M14.1158 13.0432L15.5011 11.6579V17.6429C15.5011 17.927 15.614 18.1995 15.8149 18.4005C16.0159 18.6014 16.2884 18.7143 16.5726 18.7143C16.8567 18.7143 17.1292 18.6014 17.3302 18.4005C17.5311 18.1995 17.644 17.927 17.644 17.6429V11.6579L19.0293 13.0432C19.2304 13.2432 19.5026 13.3553 19.7862 13.3549C20.0698 13.3545 20.3417 13.2417 20.5423 13.0411C20.7428 12.8406 20.8557 12.5687 20.8561 12.2851C20.8565 12.0015 20.7444 11.7293 20.5444 11.5282L17.3301 8.31389C17.2306 8.21438 17.1125 8.13544 16.9826 8.08158C16.8526 8.02772 16.7133 8 16.5726 8C16.4319 8 16.2925 8.02772 16.1626 8.08158C16.0326 8.13544 15.9145 8.21438 15.815 8.31389L12.6007 11.5282C12.4008 11.7293 12.2887 12.0015 12.2891 12.2851C12.2895 12.5687 12.4023 12.8406 12.6028 13.0411C12.8034 13.2417 13.0753 13.3545 13.3589 13.3549C13.6425 13.3553 13.9147 13.2432 14.1158 13.0432V13.0432Z" fill="white"/>
<defs>
<linearGradient id="paint0_linear_545_5" x1="2.81111" y1="33" x2="28.1111" y2="33" gradientUnits="userSpaceOnUse">
<stop offset="0.0809503" stop-color="#4399F7"/>
<stop offset="1" stop-color="#C739EA"/>
</linearGradient>
</defs>
</svg>
