<svg width="670" height="177" viewBox="0 0 670 177" fill="none" xmlns="http://www.w3.org/2000/svg">
<path d="M669.5 88.5C669.5 100.447 660.327 111.958 643.409 122.524C626.518 133.074 602.042 142.594 571.753 150.596C511.182 166.597 427.477 176.5 335 176.5C242.523 176.5 158.818 166.597 98.2469 150.596C67.958 142.594 43.4823 133.074 26.5908 122.524C9.67318 111.958 0.5 100.447 0.5 88.5C0.5 76.5532 9.67318 65.0425 26.5908 54.4759C43.4823 43.9256 67.958 34.4062 98.2469 26.4045C158.818 10.403 242.523 0.5 335 0.5C427.477 0.5 511.182 10.403 571.753 26.4045C602.042 34.4062 626.518 43.9256 643.409 54.4759C660.327 65.0425 669.5 76.5532 669.5 88.5Z" stroke="#C739EA" stroke-opacity="0.5"/>
<path opacity="0.5" d="M579.5 95C579.5 103.703 572.844 112.123 560.481 119.877C548.144 127.616 530.258 134.603 508.113 140.479C463.829 152.227 402.624 159.5 335 159.5C267.376 159.5 206.171 152.227 161.887 140.479C139.742 134.603 121.856 127.616 109.519 119.877C97.1562 112.123 90.5 103.703 90.5 95C90.5 86.2968 97.1562 77.8773 109.519 70.1226C121.856 62.3841 139.742 55.3967 161.887 49.5213C206.171 37.7726 267.376 30.5 335 30.5C402.624 30.5 463.829 37.7726 508.113 49.5213C530.258 55.3967 548.144 62.3841 560.481 70.1226C572.844 77.8773 579.5 86.2968 579.5 95Z" stroke="#C739EA" stroke-opacity="0.5"/>
</svg>
