<svg width="1070" height="283" viewBox="0 0 1070 283" fill="none" xmlns="http://www.w3.org/2000/svg">
<path d="M1069.5 141.5C1069.5 160.765 1054.73 179.247 1027.69 196.154C1000.68 213.045 961.56 228.275 913.174 241.072C816.411 266.665 682.706 282.5 535 282.5C387.294 282.5 253.589 266.665 156.826 241.072C108.44 228.275 69.3201 213.045 42.308 196.154C15.27 179.247 0.5 160.765 0.5 141.5C0.5 122.235 15.27 103.753 42.308 86.8458C69.3201 69.9547 108.44 54.725 156.826 41.9278C253.589 16.3352 387.294 0.5 535 0.5C682.706 0.5 816.411 16.3352 913.174 41.9278C961.56 54.725 1000.68 69.9547 1027.69 86.8458C1054.73 103.753 1069.5 122.235 1069.5 141.5Z" stroke="#C739EA" stroke-opacity="0.5"/>
<path opacity="0.5" d="M926.5 152C926.5 166.088 915.73 179.637 895.929 192.058C876.153 204.462 847.504 215.652 812.058 225.056C741.172 243.862 643.217 255.5 535 255.5C426.783 255.5 328.828 243.862 257.942 225.056C222.496 215.652 193.847 204.462 174.071 192.058C154.27 179.637 143.5 166.088 143.5 152C143.5 137.912 154.27 124.363 174.071 111.942C193.847 99.5376 222.496 88.3483 257.942 78.9442C328.828 60.1379 426.783 48.5 535 48.5C643.217 48.5 741.172 60.1379 812.058 78.9442C847.504 88.3483 876.153 99.5376 895.929 111.942C915.73 124.363 926.5 137.912 926.5 152Z" stroke="#C739EA" stroke-opacity="0.5"/>
</svg>
