<svg width="28" height="18" viewBox="0 0 28 18" fill="none" xmlns="http://www.w3.org/2000/svg">
<path d="M14.0001 18C9.73514 18 5.69913 16.193 2.63314 12.912C2.25613 12.509 2.27814 11.876 2.68114 11.499C3.08514 11.122 3.71714 11.144 4.09514 11.547C6.77814 14.419 10.2951 16 14.0001 16C18.7631 16 23.1491 13.395 25.8401 9C23.1501 4.605 18.7631 2 14.0001 2C9.06214 2 4.52814 4.801 1.87014 9.493C1.59814 9.974 0.986135 10.144 0.507135 9.87C0.0261352 9.598 -0.141865 8.988 0.130135 8.507C3.14714 3.18 8.33314 0 14.0001 0C19.6681 0 24.8531 3.18 27.8701 8.507C28.0431 8.813 28.0431 9.187 27.8701 9.492C24.8531 14.819 19.6681 18 14.0001 18Z" fill="white"/>
<path d="M14 14C11.243 14 9 11.757 9 9C9 6.243 11.243 4 14 4C16.757 4 19 6.243 19 9C19 11.757 16.757 14 14 14ZM14 6C12.346 6 11 7.346 11 9C11 10.654 12.346 12 14 12C15.654 12 17 10.654 17 9C17 7.346 15.654 6 14 6Z" fill="white"/>
</svg>
