<svg width="23" height="26" viewBox="0 0 23 26" fill="none" xmlns="http://www.w3.org/2000/svg">
<path d="M11.001 25.9649C10.8694 25.9657 10.7389 25.9405 10.6171 25.8907C10.4953 25.841 10.3845 25.7676 10.291 25.6749L3.22101 18.6749C2.20028 17.6609 1.39019 16.455 0.83739 15.1267C0.284591 13.7983 0 12.3737 0 10.9349C0 9.49615 0.284591 8.07157 0.83739 6.74321C1.39019 5.41485 2.20028 4.20895 3.22101 3.19494C5.29305 1.14792 8.08835 0 11.001 0C13.9137 0 16.709 1.14792 18.781 3.19494C19.8018 4.20895 20.6118 5.41485 21.1646 6.74321C21.7174 8.07157 22.002 9.49615 22.002 10.9349C22.002 12.3737 21.7174 13.7983 21.1646 15.1267C20.6118 16.455 19.8018 17.6609 18.781 18.6749L11.711 25.6749C11.6176 25.7676 11.5068 25.841 11.3849 25.8907C11.2631 25.9405 11.1326 25.9657 11.001 25.9649ZM11.001 1.96494C8.61427 1.95909 6.32295 2.90152 4.63101 4.58494C3.79773 5.41303 3.13643 6.39772 2.68517 7.48236C2.23391 8.567 2.0016 9.73018 2.0016 10.9049C2.0016 12.0797 2.23391 13.2429 2.68517 14.3275C3.13643 15.4122 3.79773 16.3969 4.63101 17.2249L11.001 23.5549L17.371 17.2249C18.2043 16.3969 18.8656 15.4122 19.3169 14.3275C19.7681 13.2429 20.0004 12.0797 20.0004 10.9049C20.0004 9.73018 19.7681 8.567 19.3169 7.48236C18.8656 6.39772 18.2043 5.41303 17.371 4.58494C15.6791 2.90152 13.3878 1.95909 11.001 1.96494Z" fill="white"/>
<path d="M11.001 15.965C10.0121 15.965 9.04537 15.6717 8.22313 15.1223C7.40088 14.5729 6.76002 13.792 6.38158 12.8784C6.00314 11.9648 5.90413 10.9594 6.09705 9.98952C6.28998 9.01961 6.76618 8.1287 7.46545 7.42943C8.16471 6.73017 9.05562 6.25397 10.0255 6.06104C10.9954 5.86812 12.0008 5.96713 12.9144 6.34557C13.828 6.72401 14.6089 7.36487 15.1583 8.18712C15.7077 9.00936 16.001 9.97606 16.001 10.965C16.001 12.2911 15.4742 13.5628 14.5365 14.5005C13.5988 15.4382 12.3271 15.965 11.001 15.965ZM11.001 7.96497C10.4076 7.96497 9.82762 8.14092 9.33427 8.47056C8.84092 8.8002 8.4564 9.26874 8.22934 9.81692C8.00228 10.3651 7.94287 10.9683 8.05862 11.5502C8.17438 12.1322 8.4601 12.6667 8.87966 13.0863C9.29922 13.5058 9.83377 13.7916 10.4157 13.9073C10.9977 14.0231 11.6009 13.9637 12.149 13.7366C12.6972 13.5095 13.1657 13.125 13.4954 12.6317C13.825 12.1383 14.001 11.5583 14.001 10.965C14.001 10.1693 13.6849 9.40626 13.1223 8.84365C12.5597 8.28104 11.7966 7.96497 11.001 7.96497Z" fill="white"/>
</svg>
