<svg width="279" height="270" viewBox="0 0 279 270" fill="none" xmlns="http://www.w3.org/2000/svg">
<path d="M190.977 202.324C239.222 165.44 255.137 105.198 226.522 67.7696C197.908 30.3415 135.601 29.9004 87.3559 66.7844C39.1106 103.668 23.1964 163.91 51.8106 201.338C80.4247 238.767 142.732 239.208 190.977 202.324Z" stroke="url(#paint0_linear_527_206)" stroke-width="0.5" stroke-miterlimit="10"/>
<path d="M186.612 201.397C232.298 166.571 246.727 108.684 218.841 72.1025C190.956 35.5213 131.314 34.0984 85.629 68.9244C39.9435 103.75 25.5141 161.637 53.3999 198.219C81.2858 234.8 140.927 236.223 186.612 201.397Z" stroke="url(#paint1_linear_527_206)" stroke-width="0.5" stroke-miterlimit="10"/>
<path d="M182.182 200.58C225.337 167.862 238.335 112.34 211.215 76.5692C184.094 40.7983 127.125 38.3237 83.9709 71.042C40.8165 103.76 27.8184 159.282 54.9388 195.053C82.0592 230.824 139.028 233.298 182.182 200.58Z" stroke="url(#paint2_linear_527_206)" stroke-width="0.5" stroke-miterlimit="10"/>
<path d="M177.618 199.869C218.3 169.337 229.975 116.2 203.695 81.1831C177.415 46.1665 123.131 42.531 82.4494 73.0628C41.7674 103.595 30.0922 156.732 56.3722 191.749C82.6522 226.765 136.936 230.401 177.618 199.869Z" stroke="url(#paint3_linear_527_206)" stroke-width="0.5" stroke-miterlimit="10"/>
<path d="M172.757 199.335C211.091 171.147 221.676 120.432 196.4 86.0584C171.124 51.6851 119.559 46.6706 81.2256 74.8581C42.8925 103.046 32.3075 153.761 57.5833 188.135C82.8592 222.508 134.424 227.523 172.757 199.335Z" stroke="url(#paint4_linear_527_206)" stroke-width="0.5" stroke-miterlimit="10"/>
<path d="M166.839 199.555C203.232 174.3 213.531 126.154 189.842 92.017C166.154 57.8803 117.447 50.68 81.0541 75.9347C44.6608 101.189 34.3618 149.336 58.0506 183.472C81.7393 217.609 130.445 224.809 166.839 199.555Z" stroke="url(#paint5_linear_527_206)" stroke-width="0.5" stroke-miterlimit="10"/>
<path d="M148.275 206.223C186.347 190.858 204.953 148.03 189.832 110.565C174.712 73.1001 131.591 55.1845 93.5197 70.5496C55.4481 85.9147 36.8424 128.742 51.9628 166.207C67.0832 203.672 110.204 221.588 148.275 206.223Z" stroke="url(#paint6_linear_527_206)" stroke-width="0.5" stroke-miterlimit="10"/>
<path d="M168.062 189.638C194.82 163.086 194.032 118.907 166.302 90.9621C138.572 63.0167 94.401 61.8869 67.643 88.4386C40.885 114.99 41.6729 159.169 69.4029 187.114C97.1328 215.06 141.304 216.189 168.062 189.638Z" stroke="url(#paint7_linear_527_206)" stroke-width="0.5" stroke-miterlimit="10"/>
<path d="M160.652 191.578C186.459 168.804 186.864 127.094 161.557 98.4176C136.25 69.7409 94.814 64.9562 69.007 87.7308C43.2 110.505 42.7948 152.215 68.1019 180.892C93.409 209.568 134.845 214.353 160.652 191.578Z" stroke="url(#paint8_linear_527_206)" stroke-width="0.5" stroke-miterlimit="10"/>
<path d="M155.518 191.387C179.166 171.134 178.753 131.849 154.595 103.642C130.437 75.4344 91.6825 68.9865 68.0344 89.2398C44.3864 109.493 44.7997 148.778 68.9577 176.985C93.1157 205.193 131.87 211.641 155.518 191.387Z" stroke="url(#paint9_linear_527_206)" stroke-width="0.5" stroke-miterlimit="10"/>
<path d="M150.9 190.729C172.152 172.727 170.501 135.846 147.212 108.354C123.924 80.8623 87.8167 73.1697 66.5648 91.1724C45.313 109.175 46.9641 146.056 70.2528 173.547C93.5414 201.039 129.649 208.732 150.9 190.729Z" stroke="url(#paint10_linear_527_206)" stroke-width="0.5" stroke-miterlimit="10"/>
<path d="M146.481 189.893C165.255 174.046 162.214 139.566 139.688 112.88C117.163 86.1948 83.6825 77.4088 64.9085 93.2563C46.1344 109.104 49.1757 143.584 71.7015 170.269C94.2272 196.955 127.707 205.741 146.481 189.893Z" stroke="url(#paint11_linear_527_206)" stroke-width="0.5" stroke-miterlimit="10"/>
<path d="M142.161 189.016C158.424 175.284 153.919 143.204 132.099 117.364C110.279 91.5239 79.4076 81.7086 63.1451 95.4409C46.8826 109.173 51.3877 141.253 73.2074 167.093C95.0272 192.933 125.899 202.749 142.161 189.016Z" stroke="url(#paint12_linear_527_206)" stroke-width="0.5" stroke-miterlimit="10"/>
<path d="M137.897 188.045C151.63 176.408 145.619 146.742 124.471 121.786C103.322 96.8291 75.0452 86.0322 61.3118 97.6701C47.5784 109.308 53.5894 138.973 74.7378 163.93C95.8861 188.886 124.163 199.683 137.897 188.045Z" stroke="url(#paint13_linear_527_206)" stroke-width="0.5" stroke-miterlimit="10"/>
<defs>
<linearGradient id="paint0_linear_527_206" x1="87.3559" y1="66.7844" x2="190.977" y2="202.324" gradientUnits="userSpaceOnUse">
<stop stop-color="#883DA8"/>
<stop offset="1" stop-color="#4399F7"/>
</linearGradient>
<linearGradient id="paint1_linear_527_206" x1="85.629" y1="68.9244" x2="186.612" y2="201.397" gradientUnits="userSpaceOnUse">
<stop stop-color="#883DA8"/>
<stop offset="1" stop-color="#4399F7"/>
</linearGradient>
<linearGradient id="paint2_linear_527_206" x1="83.9709" y1="71.042" x2="182.182" y2="200.58" gradientUnits="userSpaceOnUse">
<stop stop-color="#883DA8"/>
<stop offset="1" stop-color="#4399F7"/>
</linearGradient>
<linearGradient id="paint3_linear_527_206" x1="82.4494" y1="73.0628" x2="177.618" y2="199.869" gradientUnits="userSpaceOnUse">
<stop stop-color="#883DA8"/>
<stop offset="1" stop-color="#4399F7"/>
</linearGradient>
<linearGradient id="paint4_linear_527_206" x1="81.2256" y1="74.8581" x2="172.757" y2="199.335" gradientUnits="userSpaceOnUse">
<stop stop-color="#883DA8"/>
<stop offset="1" stop-color="#4399F7"/>
</linearGradient>
<linearGradient id="paint5_linear_527_206" x1="81.0541" y1="75.9347" x2="166.839" y2="199.555" gradientUnits="userSpaceOnUse">
<stop stop-color="#883DA8"/>
<stop offset="1" stop-color="#4399F7"/>
</linearGradient>
<linearGradient id="paint6_linear_527_206" x1="93.5197" y1="70.5496" x2="148.275" y2="206.223" gradientUnits="userSpaceOnUse">
<stop stop-color="#883DA8"/>
<stop offset="1" stop-color="#4399F7"/>
</linearGradient>
<linearGradient id="paint7_linear_527_206" x1="67.643" y1="88.4386" x2="168.062" y2="189.638" gradientUnits="userSpaceOnUse">
<stop stop-color="#883DA8"/>
<stop offset="1" stop-color="#4399F7"/>
</linearGradient>
<linearGradient id="paint8_linear_527_206" x1="69.007" y1="87.7308" x2="160.652" y2="191.578" gradientUnits="userSpaceOnUse">
<stop stop-color="#883DA8"/>
<stop offset="1" stop-color="#4399F7"/>
</linearGradient>
<linearGradient id="paint9_linear_527_206" x1="68.0344" y1="89.2398" x2="155.518" y2="191.387" gradientUnits="userSpaceOnUse">
<stop stop-color="#883DA8"/>
<stop offset="1" stop-color="#4399F7"/>
</linearGradient>
<linearGradient id="paint10_linear_527_206" x1="66.5648" y1="91.1724" x2="150.9" y2="190.729" gradientUnits="userSpaceOnUse">
<stop stop-color="#883DA8"/>
<stop offset="1" stop-color="#4399F7"/>
</linearGradient>
<linearGradient id="paint11_linear_527_206" x1="64.9085" y1="93.2563" x2="146.481" y2="189.893" gradientUnits="userSpaceOnUse">
<stop stop-color="#883DA8"/>
<stop offset="1" stop-color="#4399F7"/>
</linearGradient>
<linearGradient id="paint12_linear_527_206" x1="63.1451" y1="95.4409" x2="142.161" y2="189.016" gradientUnits="userSpaceOnUse">
<stop stop-color="#883DA8"/>
<stop offset="1" stop-color="#4399F7"/>
</linearGradient>
<linearGradient id="paint13_linear_527_206" x1="61.3118" y1="97.6701" x2="137.897" y2="188.045" gradientUnits="userSpaceOnUse">
<stop stop-color="#883DA8"/>
<stop offset="1" stop-color="#4399F7"/>
</linearGradient>
</defs>
</svg>
