<svg width="279" height="270" viewBox="0 0 279 270" fill="none" xmlns="http://www.w3.org/2000/svg">
<path d="M87.3559 202.324C39.1105 165.44 23.1963 105.198 51.8105 67.7696C80.4247 30.3415 142.732 29.9004 190.977 66.7844C239.222 103.668 255.137 163.91 226.522 201.338C197.908 238.767 135.601 239.208 87.3559 202.324Z" stroke="url(#paint0_linear_527_221)" stroke-width="0.5" stroke-miterlimit="10"/>
<path d="M91.7204 201.397C46.035 166.571 31.6056 108.684 59.4914 72.1025C87.3772 35.5213 147.019 34.0984 192.704 68.9244C238.389 103.75 252.819 161.637 224.933 198.219C197.047 234.8 137.406 236.223 91.7204 201.397Z" stroke="url(#paint1_linear_527_221)" stroke-width="0.5" stroke-miterlimit="10"/>
<path d="M96.1505 200.58C52.9961 167.862 39.998 112.34 67.1183 76.5692C94.2387 40.7983 151.208 38.3237 194.362 71.042C237.516 103.76 250.514 159.282 223.394 195.053C196.274 230.824 139.305 233.298 96.1505 200.58Z" stroke="url(#paint2_linear_527_221)" stroke-width="0.5" stroke-miterlimit="10"/>
<path d="M100.715 199.869C60.0333 169.337 48.3582 116.2 74.6382 81.1831C100.918 46.1665 155.202 42.531 195.884 73.0628C236.566 103.595 248.241 156.732 221.961 191.749C195.681 226.765 141.397 230.401 100.715 199.869Z" stroke="url(#paint3_linear_527_221)" stroke-width="0.5" stroke-miterlimit="10"/>
<path d="M105.575 199.335C67.2424 171.147 56.6574 120.432 81.9332 86.0584C107.209 51.6851 158.774 46.6706 197.107 74.8581C235.44 103.046 246.025 153.761 220.75 188.135C195.474 222.508 143.909 227.523 105.575 199.335Z" stroke="url(#paint4_linear_527_221)" stroke-width="0.5" stroke-miterlimit="10"/>
<path d="M111.494 199.555C75.1008 174.3 64.8018 126.154 88.4906 92.017C112.179 57.8803 160.885 50.68 197.279 75.9347C233.672 101.189 243.971 149.336 220.282 183.472C196.594 217.609 147.887 224.809 111.494 199.555Z" stroke="url(#paint5_linear_527_221)" stroke-width="0.5" stroke-miterlimit="10"/>
<path d="M130.057 206.223C91.9859 190.858 73.3802 148.03 88.5006 110.565C103.621 73.1001 146.742 55.1845 184.813 70.5496C222.885 85.9147 241.49 128.742 226.37 166.207C211.25 203.672 168.129 221.588 130.057 206.223Z" stroke="url(#paint6_linear_527_221)" stroke-width="0.5" stroke-miterlimit="10"/>
<path d="M110.271 189.638C83.5129 163.086 84.3008 118.907 112.031 90.9621C139.761 63.0167 183.932 61.8869 210.69 88.4386C237.448 114.99 236.66 159.169 208.93 187.114C181.2 215.06 137.029 216.189 110.271 189.638Z" stroke="url(#paint7_linear_527_221)" stroke-width="0.5" stroke-miterlimit="10"/>
<path d="M117.681 191.578C91.8737 168.804 91.4685 127.094 116.776 98.4176C142.083 69.7409 183.519 64.9562 209.326 87.7308C235.133 110.505 235.538 152.215 210.231 180.892C184.924 209.568 143.488 214.353 117.681 191.578Z" stroke="url(#paint8_linear_527_221)" stroke-width="0.5" stroke-miterlimit="10"/>
<path d="M122.815 191.387C99.1666 171.134 99.58 131.849 123.738 103.642C147.896 75.4344 186.65 68.9865 210.298 89.2398C233.947 109.493 233.533 148.778 209.375 176.985C185.217 205.193 146.463 211.641 122.815 191.387Z" stroke="url(#paint9_linear_527_221)" stroke-width="0.5" stroke-miterlimit="10"/>
<path d="M127.432 190.729C106.181 172.727 107.832 135.846 131.12 108.354C154.409 80.8623 190.516 73.1697 211.768 91.1724C233.02 109.175 231.369 146.056 208.08 173.547C184.791 201.039 148.684 208.732 127.432 190.729Z" stroke="url(#paint10_linear_527_221)" stroke-width="0.5" stroke-miterlimit="10"/>
<path d="M131.852 189.893C113.077 174.046 116.119 139.566 138.645 112.88C161.17 86.1948 194.65 77.4088 213.424 93.2563C232.198 109.104 229.157 143.584 206.631 170.269C184.106 196.955 150.626 205.741 131.852 189.893Z" stroke="url(#paint11_linear_527_221)" stroke-width="0.5" stroke-miterlimit="10"/>
<path d="M136.171 189.016C119.909 175.284 124.414 143.204 146.234 117.364C168.054 91.5239 198.925 81.7086 215.188 95.4409C231.45 109.173 226.945 141.253 205.125 167.093C183.306 192.933 152.434 202.749 136.171 189.016Z" stroke="url(#paint12_linear_527_221)" stroke-width="0.5" stroke-miterlimit="10"/>
<path d="M140.436 188.045C126.703 176.408 132.714 146.742 153.862 121.786C175.01 96.8291 203.288 86.0322 217.021 97.6701C230.754 109.308 224.743 138.973 203.595 163.93C182.447 188.886 154.17 199.683 140.436 188.045Z" stroke="url(#paint13_linear_527_221)" stroke-width="0.5" stroke-miterlimit="10"/>
<defs>
<linearGradient id="paint0_linear_527_221" x1="190.977" y1="66.7844" x2="87.3559" y2="202.324" gradientUnits="userSpaceOnUse">
<stop stop-color="#883DA8"/>
<stop offset="1" stop-color="#4399F7"/>
</linearGradient>
<linearGradient id="paint1_linear_527_221" x1="192.704" y1="68.9244" x2="91.7204" y2="201.397" gradientUnits="userSpaceOnUse">
<stop stop-color="#883DA8"/>
<stop offset="1" stop-color="#4399F7"/>
</linearGradient>
<linearGradient id="paint2_linear_527_221" x1="194.362" y1="71.042" x2="96.1505" y2="200.58" gradientUnits="userSpaceOnUse">
<stop stop-color="#883DA8"/>
<stop offset="1" stop-color="#4399F7"/>
</linearGradient>
<linearGradient id="paint3_linear_527_221" x1="195.884" y1="73.0628" x2="100.715" y2="199.869" gradientUnits="userSpaceOnUse">
<stop stop-color="#883DA8"/>
<stop offset="1" stop-color="#4399F7"/>
</linearGradient>
<linearGradient id="paint4_linear_527_221" x1="197.107" y1="74.8581" x2="105.575" y2="199.335" gradientUnits="userSpaceOnUse">
<stop stop-color="#883DA8"/>
<stop offset="1" stop-color="#4399F7"/>
</linearGradient>
<linearGradient id="paint5_linear_527_221" x1="197.279" y1="75.9347" x2="111.494" y2="199.555" gradientUnits="userSpaceOnUse">
<stop stop-color="#883DA8"/>
<stop offset="1" stop-color="#4399F7"/>
</linearGradient>
<linearGradient id="paint6_linear_527_221" x1="184.813" y1="70.5496" x2="130.057" y2="206.223" gradientUnits="userSpaceOnUse">
<stop stop-color="#883DA8"/>
<stop offset="1" stop-color="#4399F7"/>
</linearGradient>
<linearGradient id="paint7_linear_527_221" x1="210.69" y1="88.4386" x2="110.271" y2="189.638" gradientUnits="userSpaceOnUse">
<stop stop-color="#883DA8"/>
<stop offset="1" stop-color="#4399F7"/>
</linearGradient>
<linearGradient id="paint8_linear_527_221" x1="209.326" y1="87.7308" x2="117.681" y2="191.578" gradientUnits="userSpaceOnUse">
<stop stop-color="#883DA8"/>
<stop offset="1" stop-color="#4399F7"/>
</linearGradient>
<linearGradient id="paint9_linear_527_221" x1="210.298" y1="89.2398" x2="122.815" y2="191.387" gradientUnits="userSpaceOnUse">
<stop stop-color="#883DA8"/>
<stop offset="1" stop-color="#4399F7"/>
</linearGradient>
<linearGradient id="paint10_linear_527_221" x1="211.768" y1="91.1724" x2="127.432" y2="190.729" gradientUnits="userSpaceOnUse">
<stop stop-color="#883DA8"/>
<stop offset="1" stop-color="#4399F7"/>
</linearGradient>
<linearGradient id="paint11_linear_527_221" x1="213.424" y1="93.2563" x2="131.852" y2="189.893" gradientUnits="userSpaceOnUse">
<stop stop-color="#883DA8"/>
<stop offset="1" stop-color="#4399F7"/>
</linearGradient>
<linearGradient id="paint12_linear_527_221" x1="215.188" y1="95.4409" x2="136.171" y2="189.016" gradientUnits="userSpaceOnUse">
<stop stop-color="#883DA8"/>
<stop offset="1" stop-color="#4399F7"/>
</linearGradient>
<linearGradient id="paint13_linear_527_221" x1="217.021" y1="97.6701" x2="140.436" y2="188.045" gradientUnits="userSpaceOnUse">
<stop stop-color="#883DA8"/>
<stop offset="1" stop-color="#4399F7"/>
</linearGradient>
</defs>
</svg>
